<svg width="25" height="24" viewBox="0 0 25 24" fill="none" xmlns="http://www.w3.org/2000/svg">
<g id="Group">
<path id="Vector" d="M24.3984 10.4348H14.0653H14.0653V0.101578C13.5529 0.034875 13.0305 0 12.5 0C11.9695 0 11.4471 0.034875 10.9348 0.101578V10.4347V10.4347H0.601578C0.534875 10.9471 0.5 11.4695 0.5 12C0.5 12.5306 0.534875 13.0529 0.601578 13.5652H10.9347H10.9347V23.8984C11.4471 23.9651 11.9695 24 12.5 24C13.0305 24 13.5529 23.9652 14.0652 23.8984V13.5653V13.5653H24.3984C24.4651 13.0529 24.5 12.5306 24.5 12C24.5 11.4695 24.4651 10.9471 24.3984 10.4348Z" fill="#D80027"/>
<path id="Vector_2" d="M7.80428 5.74005V4.1748H6.23908V5.74005H4.67383V7.30526H6.23908V8.87046H7.80428V7.30526H9.36948V5.74005H7.80428Z" fill="#D80027"/>
<path id="Vector_3" d="M18.7608 5.74005V4.1748H17.1956V5.74005H15.6304V7.30526H17.1956V8.87046H18.7608V7.30526H20.3261V5.74005H18.7608Z" fill="#D80027"/>
<path id="Vector_4" d="M7.80428 16.6966V15.1313H6.23908V16.6966H4.67383V18.2618H6.23908V19.827H7.80428V18.2618H9.36948V16.6966H7.80428Z" fill="#D80027"/>
<path id="Vector_5" d="M18.7608 16.6966V15.1313H17.1956V16.6966H15.6304V18.2618H17.1956V19.827H18.7608V18.2618H20.3261V16.6966H18.7608Z" fill="#D80027"/>
</g>
</svg>
