<svg width="25" height="24" viewBox="0 0 25 24" fill="none" xmlns="http://www.w3.org/2000/svg">
<g clip-path="url(#clip0_2848_6036)">
<path d="M12.5 24C19.1274 24 24.5 18.6274 24.5 12C24.5 5.37258 19.1274 0 12.5 0C5.87258 0 0.5 5.37258 0.5 12C0.5 18.6274 5.87258 24 12.5 24Z" fill="#D80027"/>
<path d="M12.0088 9.80518L12.9934 11.162L14.5879 10.6449L13.6018 12.0006L14.5862 13.3573L12.9923 12.8383L12.0061 14.1939L12.0072 12.5176L10.4131 11.9986L12.0077 11.4816L12.0088 9.80518Z" fill="#F0F0F0"/>
<path d="M9.3218 15.3904C7.44886 15.3904 5.93049 13.8721 5.93049 11.9991C5.93049 10.1262 7.44886 8.60782 9.3218 8.60782C9.90577 8.60782 10.4552 8.75552 10.935 9.01545C10.1824 8.27941 9.15315 7.8252 8.01746 7.8252C5.71224 7.8252 3.84357 9.69391 3.84357 11.9991C3.84357 14.3043 5.71229 16.173 8.01746 16.173C9.15324 16.173 10.1824 15.7187 10.935 14.9827C10.4552 15.2427 9.90577 15.3904 9.3218 15.3904Z" fill="#F0F0F0"/>
</g>
<defs>
<clipPath id="clip0_2848_6036">
<rect width="24" height="24" fill="white" transform="translate(0.5)"/>
</clipPath>
</defs>
</svg>
