<svg xmlns="http://www.w3.org/2000/svg" width="24" height="24" viewBox="0 0 24 24" fill="none"><g id="menu"><path id="vector" d="M3.825 17.625C3.65833 17.625 3.52083 17.5708 3.4125 17.4625C3.30417 17.3542 3.25 17.2167 3.25 17.05C3.25 16.9 3.30417 16.7708 3.4125 16.6625C3.52083 16.5542 3.65833 16.5 3.825 16.5H20.175C20.3417 16.5 20.4792 16.5542 20.5875 16.6625C20.6958 16.7708 20.75 16.9083 20.75 17.075C20.75 17.2417 20.6958 17.375 20.5875 17.475C20.4792 17.575 20.3417 17.625 20.175 17.625H3.825ZM3.825 12.575C3.65833 12.575 3.52083 12.5208 3.4125 12.4125C3.30417 12.3042 3.25 12.1667 3.25 12C3.25 11.8333 3.30417 11.6958 3.4125 11.5875C3.52083 11.4792 3.65833 11.425 3.825 11.425H20.175C20.3417 11.425 20.4792 11.4792 20.5875 11.5875C20.6958 11.6958 20.75 11.8333 20.75 12C20.75 12.1667 20.6958 12.3042 20.5875 12.4125C20.4792 12.5208 20.3417 12.575 20.175 12.575H3.825ZM3.825 7.5C3.65833 7.5 3.52083 7.44583 3.4125 7.3375C3.30417 7.22917 3.25 7.09167 3.25 6.925C3.25 6.75833 3.30417 6.625 3.4125 6.525C3.52083 6.425 3.65833 6.375 3.825 6.375H20.175C20.3417 6.375 20.4792 6.42917 20.5875 6.5375C20.6958 6.64583 20.75 6.78333 20.75 6.95C20.75 7.1 20.6958 7.22917 20.5875 7.3375C20.4792 7.44583 20.3417 7.5 20.175 7.5H3.825Z" fill="#3B4858"></path></g></svg>