<svg xmlns="http://www.w3.org/2000/svg" width="40" height="41" viewBox="0 0 40 41" fill="none"><g id="youtube"><path id="bg" d="M33.75 0.651367H6.25C2.79822 0.651367 0 3.44959 0 6.90137V34.4014C0 37.8531 2.79822 40.6514 6.25 40.6514H33.75C37.2018 40.6514 40 37.8531 40 34.4014V6.90137C40 3.44959 37.2018 0.651367 33.75 0.651367Z" fill="#FF0000"></path><path id="youtube_2" d="M29.5 15.7764C29.25 14.9014 28.625 14.2764 27.75 14.0264C26.25 13.6514 19.875 13.6514 19.875 13.6514C19.875 13.6514 13.625 13.6514 12 14.0264C11.125 14.2764 10.5 14.9014 10.25 15.7764C10 17.4014 10 20.6514 10 20.6514C10 20.6514 10 23.9014 10.375 25.5264C10.625 26.4014 11.25 27.0264 12.125 27.2764C13.625 27.6514 20 27.6514 20 27.6514C20 27.6514 26.25 27.6514 27.875 27.2764C28.75 27.0264 29.375 26.4014 29.625 25.5264C30 23.9014 30 20.6514 30 20.6514C30 20.6514 30 17.4014 29.5 15.7764ZM18 23.6514V17.6514L23.25 20.6514L18 23.6514Z" fill="white"></path></g></svg>