<svg width="41" height="40" viewBox="0 0 41 40" fill="none" xmlns="http://www.w3.org/2000/svg">
    <path d="M27.1673 3.33203H13.834C8.33398 3.33203 3.83398 7.83203 3.83398 13.332V26.6654C3.83398 32.1654 8.33398 36.6654 13.834 36.6654H27.1673C32.6673 36.6654 37.1673 32.1654 37.1673 26.6654V13.332C37.1673 7.83203 32.6673 3.33203 27.1673 3.33203ZM33.834 26.6654C33.834 30.332 30.834 33.332 27.1673 33.332H13.834C10.1673 33.332 7.16732 30.332 7.16732 26.6654V13.332C7.16732 9.66536 10.1673 6.66536 13.834 6.66536H27.1673C30.834 6.66536 33.834 9.66536 33.834 13.332V26.6654Z" fill="#E0790B"/>
    <path d="M16.8327 12.3346C16.4993 12.0013 15.9993 11.668 15.4993 11.668C14.9993 11.668 14.4993 12.0013 14.166 12.3346C14.166 12.3346 14.166 12.3346 13.9994 12.3346L10.666 17.3346C10.166 18.168 10.3327 19.168 11.166 19.668C11.9993 20.168 12.9993 20.0013 13.4993 19.168L13.8327 18.8346V26.668C13.8327 27.668 14.4993 28.3346 15.4993 28.3346C16.4993 28.3346 17.166 27.668 17.166 26.668V18.8346L17.4993 19.3346C17.8327 19.8346 18.3327 20.0013 18.8327 20.0013C19.166 20.0013 19.4993 19.8346 19.8327 19.668C20.666 19.168 20.8327 18.168 20.3327 17.3346L16.8327 12.3346ZM27.4994 20.668L27.166 21.168V13.3346C27.166 12.3346 26.4993 11.668 25.4994 11.668C24.4994 11.668 23.8327 12.3346 23.8327 13.3346V21.168L23.4993 20.668C22.9993 19.8346 21.9993 19.668 21.166 20.168C20.3327 20.668 20.166 21.668 20.666 22.5013L23.9994 27.5013L24.166 27.668C24.3327 27.8346 24.4994 27.8346 24.666 28.0013C24.666 28.0013 24.666 28.0013 24.8327 28.0013C24.9994 28.0013 25.166 28.168 25.3327 28.168C25.4993 28.168 25.666 28.168 25.8327 28.0013C25.8327 28.0013 25.8327 28.0013 25.9994 28.0013C26.166 28.0013 26.3327 27.8346 26.4994 27.668L26.666 27.5013L29.9994 22.5013C30.4994 21.668 30.3327 20.668 29.4993 20.168C28.9993 19.8346 27.9994 20.0013 27.4994 20.668Z" fill="#E0790B"/>
</svg>
