<svg width="40" height="40" viewBox="0 0 40 40" fill="none" xmlns="http://www.w3.org/2000/svg">
    <path d="M19.3333 20.5013L20 21.668L20.6667 20.5013C21.5 19.168 22.5 18.0013 24 17.168L25 16.668L23.8333 16.0013C22.5 15.168 21.3333 14.168 20.5 12.668L20 11.668L19.3333 12.8346C18.5 14.168 17.5 15.3346 16 16.168L15 16.668L16.1667 17.3346C17.5 18.0013 18.6667 19.168 19.3333 20.5013Z" fill="#E0790B"/>
    <path d="M30 21.4981C30 20.9981 30.1667 20.6647 30.5 20.3314C31.5 19.3314 32 18.1647 32 16.8314C32 15.4981 31.5 14.3314 30.5 13.3314C30.1667 12.9981 30 12.6647 30 12.1647V11.8314C30 9.16474 27.8333 6.83141 25 6.83141H24.6667C24.1667 6.83141 23.8333 6.66474 23.5 6.33141C21.6667 4.49808 18.3333 4.49808 16.5 6.49808C16.1667 6.83141 15.6667 6.99808 15.3333 6.99808H15C12.1667 6.99808 10 9.16474 10 11.9981V12.3314C10 12.6647 9.83333 12.9981 9.5 13.3314C8.5 14.3314 8 15.4981 8 16.8314C8 18.1647 8.5 19.3314 9.5 20.3314C9.83333 20.6647 10 21.1647 10 21.4981L4.5 26.9981C4 27.4981 3.83333 27.9981 4 28.6647C4.16667 29.3314 4.66667 29.6647 5.33333 29.8314L10.1667 30.8314L11.1667 35.4981C11.3333 36.1647 11.6667 36.6647 12.3333 36.8314H12.8333C13.3333 36.8314 13.6667 36.6647 14 36.3314L20 30.3314L26 36.3314C26.3333 36.6647 26.6667 36.8314 27.1667 36.8314H27.6667C28.3333 36.6647 28.6667 36.1647 28.8333 35.4981L29.8333 30.8314L34.6667 29.8314C35.3333 29.6647 35.8333 29.3314 36 28.6647C36.1667 27.9981 36 27.4981 35.5 26.9981L30 21.4981ZM11.8333 15.6647C12.8333 14.8314 13.3333 13.4981 13.3333 12.1647V11.8314C13.3333 10.9981 14 10.1647 15 10.1647H15.3333C16.6667 10.1647 18 9.66474 18.8333 8.66474C19.5 7.99807 20.5 7.99807 21.1667 8.66474C22.1667 9.66474 23.3333 10.1647 24.6667 10.1647H25C26 10.1647 26.6667 10.8314 26.6667 11.8314V12.1647C26.6667 13.4981 27.1667 14.6647 28.1667 15.6647C28.5 15.9981 28.6667 16.3314 28.6667 16.8314C28.6667 17.3314 28.5 17.6647 28.1667 17.9981C27.1667 18.9981 26.6667 20.1647 26.6667 21.4981V21.9981C26.5 22.8314 25.8333 23.4981 25 23.4981H24.6667C23.3333 23.4981 22 23.9981 21.1667 24.9981C21 25.1647 20.6667 25.3314 20.3333 25.4981H19.5C19.3333 25.4981 19 25.3314 18.8333 25.1647C17.8333 24.1647 16.6667 23.6647 15.3333 23.6647H15C14.1667 23.6647 13.5 22.9981 13.3333 22.1647V21.6647C13.3333 20.3314 12.8333 18.9981 11.8333 18.1647C11.5 17.8314 11.3333 17.4981 11.3333 16.9981C11.3333 16.4981 11.5 15.9981 11.8333 15.6647ZM13.8333 31.8314L13.3333 28.9981C13.1667 28.3314 12.6667 27.8314 12 27.6647L9.16667 27.1647L11.1667 24.9981L11.3333 25.1647L11.8333 25.6647C12 25.6647 12 25.8314 12.1667 25.8314C12.3333 25.9981 12.5 25.9981 12.6667 26.1647C12.8333 26.1647 12.8333 26.3314 13 26.3314C13.1667 26.4981 13.5 26.4981 13.6667 26.4981C13.8333 26.4981 13.8333 26.4981 14 26.6647C14.3333 26.6647 14.6667 26.8314 15 26.8314H15.3333C15.8333 26.8314 16.1667 26.9981 16.5 27.3314L17 27.8314L17.1667 27.9981C17.3333 27.9981 17.3333 28.1647 17.5 28.1647L13.8333 31.8314ZM28.1667 27.6647C27.5 27.8314 27 28.3314 26.8333 28.9981L26.3333 31.8314L22.5 28.1647C22.8333 27.9981 23.1667 27.6647 23.5 27.3314C23.8333 26.9981 24.1667 26.8314 24.6667 26.8314H25C25.3333 26.8314 25.6667 26.8314 26 26.6647C26.1667 26.6647 26.1667 26.6647 26.3333 26.4981C26.5 26.4981 26.8333 26.3314 27 26.3314C27.1667 26.3314 27.1667 26.1647 27.3333 26.1647C27.5 25.9981 27.6667 25.9981 27.8333 25.8314C28 25.8314 28 25.6647 28.1667 25.6647L28.6667 25.1647L28.8333 24.9981L31 27.1647L28.1667 27.6647Z" fill="#E0790B"/>
</svg>
