<svg width="40" height="40" viewBox="0 0 40 40" fill="none" xmlns="http://www.w3.org/2000/svg">
    <path d="M16.6667 25.0013H20C21 25.0013 21.6667 24.3346 21.6667 23.3346C21.6667 22.3346 21 21.668 20 21.668H16.6667C15.6667 21.668 15 22.3346 15 23.3346C15 24.3346 15.6667 25.0013 16.6667 25.0013ZM16.6667 30.0013H23.3333C24.3333 30.0013 25 29.3346 25 28.3346C25 27.3346 24.3333 26.668 23.3333 26.668H16.6667C15.6667 26.668 15 27.3346 15 28.3346C15 29.3346 15.6667 30.0013 16.6667 30.0013Z" fill="#FFDDB8"/>
    <path d="M14.0007 36.668H26.0007C29.1673 36.668 31.6673 34.0013 31.6673 30.668V15.668C31.6673 15.668 31.6673 15.668 31.6673 15.5013C31.6673 15.3346 31.6673 15.168 31.5007 15.0013V14.8346C31.5007 14.668 31.334 14.5013 31.1673 14.3346L21.1673 3.66797C21.1673 3.66797 21.1673 3.66797 21.0007 3.66797C20.834 3.5013 20.834 3.5013 20.6673 3.33464H20.5007C20.334 3.33464 20.1673 3.33464 20.0007 3.16797C20.0007 3.16797 20.0007 3.16797 19.834 3.16797H14.0007C10.834 3.33464 8.33398 6.0013 8.33398 9.33463V30.8346C8.33398 34.0013 10.834 36.668 14.0007 36.668ZM26.1673 14.0013H21.6673V9.16797L26.1673 14.0013ZM11.6673 9.33463C11.6673 7.83464 12.6673 6.66797 14.0007 6.66797H18.334V15.668C18.334 16.668 19.0007 17.3346 20.0007 17.3346H28.334V30.668C28.334 32.168 27.334 33.3346 26.0007 33.3346H14.0007C12.6673 33.3346 11.6673 32.168 11.6673 30.668V9.33463Z" fill="#FFDDB8"/>
    <path d="M35.9993 7.66667C35.9993 10.7963 33.4623 13.3333 30.3327 13.3333C27.2031 13.3333 24.666 10.7963 24.666 7.66667C24.666 4.53705 27.2031 2 30.3327 2C33.4623 2 35.9993 4.53705 35.9993 7.66667Z" fill="#FFFCFA"/>
    <path d="M29.6667 14.3333C25.9847 14.3333 23 11.3487 23 7.66667C23 3.98467 25.9847 1 29.6667 1C33.3487 1 36.3333 3.98467 36.3333 7.66667C36.3333 11.3487 33.3487 14.3333 29.6667 14.3333ZM29.002 10.3333L33.7153 5.61933L32.7727 4.67667L29.002 8.448L27.116 6.562L26.1733 7.50467L29.002 10.3333Z" fill="#53AE94"/>
</svg>
