<svg width="40" height="40" viewBox="0 0 40 40" fill="none" xmlns="http://www.w3.org/2000/svg">
    <path d="M28.1673 11.8326C27.834 9.83264 26.834 8.16597 25.1673 6.83264C23.1673 5.33264 20.6673 4.66597 18.1673 5.33264L6.16732 7.99931C4.50065 8.33264 3.33398 9.83264 3.33398 11.4993V24.9993C3.33398 29.666 7.00065 33.3326 11.6673 33.3326H26.6673C31.334 33.3326 35.0006 29.666 35.0006 24.9993V19.9993C35.0006 15.9993 32.0006 12.4993 28.1673 11.8326ZM6.83398 11.3326L18.834 8.49931C19.334 8.49931 19.6673 8.33264 20.0006 8.33264C21.1673 8.33264 22.1673 8.66597 23.0007 9.33264C23.6673 9.9993 24.334 10.666 24.6673 11.4993H6.83398C6.66732 11.666 6.66732 11.666 6.66732 11.4993C6.66732 11.4993 6.66732 11.3326 6.83398 11.3326ZM31.6673 24.9993C31.6673 27.8326 29.5006 29.9993 26.6673 29.9993H11.6673C8.83398 29.9993 6.66732 27.8326 6.66732 24.9993V14.9993H26.6673C29.5006 14.9993 31.6673 17.166 31.6673 19.9993V24.9993Z" fill="#E6E6E6"/>
</svg>
